<?xml version="1.0" encoding="UTF-8" standalone="no"?>
<!DOCTYPE svg PUBLIC "-//W3C//DTD SVG 1.1//EN" "http://www.w3.org/Graphics/SVG/1.1/DTD/svg11.dtd">
<svg width="100%" height="100%" viewBox="0 0 698 358" version="1.1" xmlns="http://www.w3.org/2000/svg" xmlns:xlink="http://www.w3.org/1999/xlink" xml:space="preserve" xmlns:serif="http://www.serif.com/" style="fill-rule:evenodd;clip-rule:evenodd;stroke-linejoin:round;stroke-miterlimit:2;">
    <g transform="matrix(1,0,0,1,-191,-1596)">
        <g transform="matrix(1,0,0,1,8,1254.86)">
            <g id="imagotipo" transform="matrix(5.18329,0,0,5.18329,-1248.31,-2612.95)">
                <path d="M332.68,613.422C333.113,612.332 333.416,611.171 333.569,609.954C334.586,601.886 328.61,594.551 320.372,594.033C313.104,593.577 306.569,598.875 305.491,606.078C304.97,609.558 305.758,612.92 307.476,615.676C309.172,618.397 309.929,621.596 309.528,624.777L309.427,625.582C309.026,628.763 307.259,631.449 305.182,633.89C296.387,644.229 276.282,635.288 276.282,635.288L287.173,571.224L315.381,571.224L320.764,587.881C325.201,575.452 332.802,569.943 346.596,569.943C357.446,569.943 363.881,574.94 365.063,586.215C369.926,574.94 377.904,569.943 390.149,569.943C406.268,569.943 413.379,579.168 409.719,600.693L403.838,635.288L367.912,635.288C367.912,635.288 366.281,629.936 366.63,627.145L366.632,627.127C367.055,623.796 368.586,620.697 370.999,618.358C373.232,616.193 374.772,613.28 375.191,609.954C376.207,601.886 370.231,594.551 361.993,594.033C354.725,593.577 348.191,598.875 347.113,606.078C346.592,609.558 347.379,612.92 349.098,615.676C349.525,616.362 350.671,618.467 350.864,618.782C352.379,621.251 353.096,624.235 352.705,627.332C351.759,634.845 344.675,640.082 337.124,638.647C330.461,637.38 325.79,631.092 326.481,624.345C326.815,621.085 328.301,618.234 330.488,616.145C331.34,615.33 332.077,614.414 332.68,613.422ZM339.615,619.078C336.019,619.078 333.1,621.998 333.1,625.593C333.1,629.189 336.019,632.109 339.615,632.109C343.211,632.109 346.13,629.189 346.13,625.593C346.13,621.998 343.211,619.078 339.615,619.078ZM327.533,608.897C327.464,609.661 327.291,610.379 327.034,611.056C325.744,614.443 322.264,616.648 318.504,616.174C314.743,615.7 311.913,612.7 311.503,609.099C311.427,608.473 311.432,607.831 311.514,607.176C312.092,602.58 316.435,599.384 321.058,600.278C325.064,601.054 327.894,604.832 327.533,608.897ZM369.154,608.897C369.086,609.661 368.912,610.379 368.656,611.056C367.366,614.443 363.886,616.648 360.125,616.174C356.364,615.7 353.534,612.7 353.125,609.099C353.049,608.473 353.053,607.831 353.135,607.176C353.714,602.58 358.056,599.384 362.679,600.278C366.686,601.054 369.516,604.832 369.154,608.897Z" style="fill:rgb(39,41,73);"/>
            </g>
        </g>
    </g>
</svg>
