<?xml version="1.0" encoding="UTF-8" standalone="no"?>
<!DOCTYPE svg PUBLIC "-//W3C//DTD SVG 1.1//EN" "http://www.w3.org/Graphics/SVG/1.1/DTD/svg11.dtd">
<svg width="100%" height="100%" viewBox="0 0 789 158" version="1.1" xmlns="http://www.w3.org/2000/svg" xmlns:xlink="http://www.w3.org/1999/xlink" xml:space="preserve" xmlns:serif="http://www.serif.com/" style="fill-rule:evenodd;clip-rule:evenodd;stroke-linejoin:round;stroke-miterlimit:2;">
    <g transform="matrix(1,0,0,1,-142,-458)">
        <g id="logo">
            <g transform="matrix(1.20405,0,0,1.20405,-190.351,-193.857)">
                <path d="M332.68,613.422C333.113,612.332 333.416,611.171 333.569,609.954C334.586,601.886 328.61,594.551 320.372,594.033C313.104,593.577 306.569,598.875 305.491,606.078C304.97,609.558 305.758,612.92 307.476,615.676C309.172,618.397 309.929,621.596 309.528,624.777L309.427,625.582C309.026,628.763 307.259,631.449 305.182,633.89C296.387,644.229 276.282,635.288 276.282,635.288L287.173,571.224L315.381,571.224L320.764,587.881C325.201,575.452 332.802,569.943 346.596,569.943C357.446,569.943 363.881,574.94 365.063,586.215C369.926,574.94 377.904,569.943 390.149,569.943C406.268,569.943 413.379,579.168 409.719,600.693L403.838,635.288L367.912,635.288C367.912,635.288 366.281,629.936 366.63,627.145L366.632,627.127C367.055,623.796 368.586,620.697 370.999,618.358C373.232,616.193 374.772,613.28 375.191,609.954C376.207,601.886 370.231,594.551 361.993,594.033C354.725,593.577 348.191,598.875 347.113,606.078C346.592,609.558 347.379,612.92 349.098,615.676C349.525,616.362 350.671,618.467 350.864,618.782C352.379,621.251 353.096,624.235 352.705,627.332C351.759,634.845 344.675,640.082 337.124,638.647C330.461,637.38 325.79,631.092 326.481,624.345C326.815,621.085 328.301,618.234 330.488,616.145C331.34,615.33 332.077,614.414 332.68,613.422ZM339.615,619.078C336.019,619.078 333.1,621.998 333.1,625.593C333.1,629.189 336.019,632.109 339.615,632.109C343.211,632.109 346.13,629.189 346.13,625.593C346.13,621.998 343.211,619.078 339.615,619.078ZM327.533,608.897C327.464,609.661 327.291,610.379 327.034,611.056C325.744,614.443 322.264,616.648 318.504,616.174C314.743,615.7 311.913,612.7 311.503,609.099C311.427,608.473 311.432,607.831 311.514,607.176C312.092,602.58 316.435,599.384 321.058,600.278C325.064,601.054 327.894,604.832 327.533,608.897ZM369.154,608.897C369.086,609.661 368.912,610.379 368.656,611.056C367.366,614.443 363.886,616.648 360.125,616.174C356.364,615.7 353.534,612.7 353.125,609.099C353.049,608.473 353.053,607.831 353.135,607.176C353.714,602.58 358.056,599.384 362.679,600.278C366.686,601.054 369.516,604.832 369.154,608.897Z" style="fill:rgb(39,42,73);"/>
            </g>
            <g transform="matrix(2.52299,0,0,1.40691,-153.947,-4145.83)">
                <path d="M199.141,3352.59L203.374,3298.58L189.158,3298.58L184.924,3352.59L199.141,3352.59ZM189.947,3283.89C189.338,3291.66 191.312,3294.9 196.553,3294.9C201.854,3294.9 204.337,3291.66 204.947,3283.89C205.548,3276.22 203.582,3272.87 198.341,3272.87C193.1,3272.87 190.548,3276.22 189.947,3283.89Z" style="fill:rgb(39,42,73);fill-rule:nonzero;"/>
            </g>
            <g transform="matrix(2.52299,0,0,1.40691,-153.947,-4145.83)">
                <path d="M226.272,3276.97C226.272,3276.97 212.115,3276.97 212.115,3276.97L206.189,3352.59L220.406,3352.59L222.446,3326.56L228.116,3352.59L244.562,3352.59L237.606,3324.5L247.53,3298.58L231.084,3298.58L222.724,3322.24L226.272,3276.97Z" style="fill:rgb(39,42,73);fill-rule:nonzero;"/>
            </g>
            <g transform="matrix(2.52299,0,0,1.40691,-153.947,-4145.83)">
                <path d="M266.308,3352.59L277.272,3352.59L279.947,3318.45C281.098,3303.76 276.891,3297.5 265.867,3297.5C254.843,3297.5 249.738,3302.68 248.789,3314.78L262.163,3314.78C262.417,3311.54 263.138,3310.03 264.403,3310.03C265.728,3310.03 266.187,3311.86 265.873,3315.86L265.721,3317.81L263.191,3317.81C252.047,3317.81 246.856,3323.32 245.772,3337.14C244.858,3348.81 247.859,3353.56 253.883,3353.56C259.485,3353.56 262.397,3349.46 264.063,3339.74L266.308,3352.59ZM263.061,3330.23L264.747,3330.23L264.544,3332.82C264.231,3336.82 263.373,3338.55 261.686,3338.55C260.421,3338.55 259.972,3337.36 260.175,3334.77C260.438,3331.42 261.435,3330.23 263.061,3330.23L263.061,3330.23Z" style="fill:rgb(39,42,73);fill-rule:nonzero;"/>
            </g>
            <g transform="matrix(2.52299,0,0,1.40691,-153.947,-4145.83)">
                <path d="M299.884,3310.03C301.029,3310.03 301.477,3311.22 301.283,3313.7L313.873,3313.7C314.762,3302.36 310.866,3297.5 300.866,3297.5C290.264,3297.5 285.322,3302.9 284.399,3314.67C282.63,3337.25 299.917,3328.83 299.171,3338.33C299.044,3339.95 298.469,3341.14 297.445,3341.14C296.421,3341.14 296.058,3339.63 296.312,3336.39L282.878,3336.39C281.93,3348.49 285.861,3353.67 295.981,3353.67C307.306,3353.67 312.634,3347.95 313.582,3335.85C315.377,3312.95 297.4,3319.43 297.976,3312.08C298.077,3310.78 298.739,3310.03 299.883,3310.03L299.884,3310.03Z" style="fill:rgb(39,42,73);fill-rule:nonzero;"/>
            </g>
            <g transform="matrix(2.52299,0,0,1.40691,-153.947,-4145.83)">
                <path d="M349.198,3352.59L353.431,3298.58L339.214,3298.58L336.928,3327.74C336.412,3334.33 335.581,3337.25 334.256,3337.25C332.328,3337.25 332.161,3334.01 332.754,3326.45L334.938,3298.58L320.721,3298.58L318.435,3327.74C317.013,3345.89 319.536,3353.67 326.885,3353.67C331.403,3353.67 334.297,3349.03 336.013,3338.66L338.174,3352.59L349.198,3352.59Z" style="fill:rgb(39,42,73);fill-rule:nonzero;"/>
            </g>
            <g transform="matrix(2.52299,0,0,1.40691,-153.947,-4145.83)">
                <path d="M375.907,3276.97C375.907,3276.97 361.751,3276.97 361.751,3276.97L355.824,3352.59L370.041,3352.59L372.081,3326.56L377.752,3352.59L394.197,3352.59L387.242,3324.5L397.165,3298.58L380.72,3298.58L372.36,3322.24L375.907,3276.97Z" style="fill:rgb(39,42,73);fill-rule:nonzero;"/>
            </g>
            <g transform="matrix(2.52299,0,0,1.40691,-153.947,-4145.83)">
                <path d="M415.943,3352.59L426.907,3352.59L429.582,3318.45C430.734,3303.76 426.526,3297.5 415.502,3297.5C404.478,3297.5 399.373,3302.68 398.425,3314.78L411.798,3314.78C412.052,3311.54 412.773,3310.03 414.038,3310.03C415.363,3310.03 415.822,3311.86 415.509,3315.86L415.356,3317.81L412.826,3317.81C401.682,3317.81 396.491,3323.32 395.407,3337.14C394.493,3348.81 397.494,3353.56 403.518,3353.56C409.12,3353.56 412.032,3349.46 413.698,3339.74L415.943,3352.59ZM412.696,3330.23L414.383,3330.23L414.18,3332.82C413.866,3336.82 413.008,3338.55 411.321,3338.55C410.056,3338.55 409.607,3337.36 409.81,3334.77C410.073,3331.42 411.07,3330.23 412.697,3330.23L412.696,3330.23Z" style="fill:rgb(39,42,73);fill-rule:nonzero;"/>
            </g>
            <g transform="matrix(0.15968,0,0,0.15968,695.594,471.375)">
                <path d="M388.586,900L388.586,760.721L443.897,760.721C454.09,760.721 462.593,762.262 469.406,765.343C476.219,768.425 481.328,772.654 484.732,778.029C488.137,783.405 489.839,789.556 489.839,796.483C489.839,801.994 488.746,806.789 486.559,810.869C484.373,814.949 481.399,818.285 477.638,820.877C473.876,823.469 469.6,825.309 464.809,826.396L464.809,827.807C470.047,828.023 474.983,829.51 479.617,832.269C484.251,835.028 488.016,838.889 490.914,843.852C493.812,848.816 495.261,854.741 495.261,861.628C495.261,868.945 493.463,875.5 489.866,881.293C486.27,887.087 480.926,891.653 473.836,894.992C466.745,898.331 457.952,900 447.455,900L388.586,900ZM417.148,876.523L441.788,876.523C450.175,876.523 456.288,874.906 460.128,871.673C463.969,868.44 465.889,864.188 465.889,858.917C465.889,854.984 464.94,851.5 463.044,848.466C461.147,845.431 458.453,843.05 454.963,841.321C451.473,839.592 447.326,838.728 442.521,838.728L417.148,838.728L417.148,876.523ZM417.148,819.229L439.631,819.229C443.708,819.229 447.359,818.5 450.586,817.042C453.812,815.584 456.357,813.501 458.22,810.793C460.083,808.084 461.015,804.852 461.015,801.097C461.015,796.027 459.215,791.91 455.614,788.745C452.013,785.579 446.872,783.996 440.192,783.996L417.148,783.996L417.148,819.229Z" style="fill:rgb(39,42,73);fill-rule:nonzero;"/>
                <rect x="513.342" y="760.721" width="28.563" height="139.279" style="fill:rgb(39,42,73);fill-rule:nonzero;"/>
                <path d="M626.02,901.87C613.68,901.87 602.634,899.063 592.879,893.45C583.125,887.837 575.433,879.704 569.802,869.05C564.171,858.396 561.355,845.531 561.355,830.454C561.355,815.281 564.196,802.359 569.878,791.688C575.559,781.018 583.285,772.878 593.056,767.267C602.827,761.657 613.815,758.851 626.02,758.851C633.937,758.851 641.312,759.955 648.147,762.163C654.982,764.371 661.044,767.597 666.332,771.84C671.62,776.083 675.956,781.269 679.341,787.397C682.726,793.524 684.94,800.508 685.985,808.347L657.12,808.347C656.459,804.524 655.249,801.125 653.489,798.15C651.73,795.175 649.516,792.643 646.848,790.554C644.18,788.466 641.137,786.882 637.719,785.804C634.3,784.725 630.603,784.186 626.625,784.186C619.385,784.186 613.032,785.994 607.563,789.609C602.095,793.225 597.852,798.473 594.834,805.356C591.817,812.238 590.308,820.604 590.308,830.454C590.308,840.477 591.841,848.922 594.906,855.787C597.971,862.653 602.221,867.827 607.656,871.31C613.091,874.793 619.38,876.535 626.524,876.535C630.502,876.535 634.191,875.988 637.592,874.896C640.993,873.803 644.045,872.22 646.746,870.145C649.448,868.071 651.696,865.539 653.489,862.549C655.283,859.559 656.527,856.168 657.221,852.374L686.086,852.374C685.306,858.838 683.383,865.027 680.318,870.938C677.253,876.85 673.152,882.137 668.015,886.798C662.878,891.459 656.792,895.136 649.755,897.83C642.719,900.523 634.807,901.87 626.02,901.87Z" style="fill:rgb(39,42,73);fill-rule:nonzero;"/>
                <rect x="704.854" y="760.721" width="28.563" height="139.279" style="fill:rgb(39,42,73);fill-rule:nonzero;"/>
                <path d="M817.532,901.87C805.192,901.87 794.145,899.063 784.391,893.45C774.637,887.837 766.944,879.704 761.313,869.05C755.682,858.396 752.867,845.531 752.867,830.454C752.867,815.281 755.708,802.359 761.389,791.688C767.071,781.018 774.797,772.878 784.568,767.267C794.338,761.657 805.326,758.851 817.532,758.851C825.448,758.851 832.824,759.955 839.659,762.163C846.494,764.371 852.555,767.597 857.843,771.84C863.132,776.083 867.468,781.269 870.853,787.397C874.237,793.524 876.452,800.508 877.497,808.347L848.632,808.347C847.97,804.524 846.76,801.125 845.001,798.15C843.241,795.175 841.027,792.643 838.359,790.554C835.691,788.466 832.648,786.882 829.23,785.804C825.812,784.725 822.114,784.186 818.136,784.186C810.897,784.186 804.543,785.994 799.075,789.609C793.606,793.225 789.363,798.473 786.346,805.356C783.328,812.238 781.82,820.604 781.82,830.454C781.82,840.477 783.352,848.922 786.417,855.787C789.483,862.653 793.733,867.827 799.167,871.31C804.602,874.793 810.892,876.535 818.036,876.535C822.013,876.535 825.703,875.988 829.104,874.896C832.505,873.803 835.556,872.22 838.258,870.145C840.959,868.071 843.207,865.539 845.001,862.549C846.794,859.559 848.038,856.168 848.732,852.374L877.597,852.374C876.817,858.838 874.895,865.027 871.83,870.938C868.764,876.85 864.663,882.137 859.527,886.798C854.39,891.459 848.303,895.136 841.267,897.83C834.23,900.523 826.319,901.87 817.532,901.87Z" style="fill:rgb(39,42,73);fill-rule:nonzero;"/>
                <path d="M957.57,901.87C945.264,901.87 934.2,899.063 924.378,893.45C914.557,887.837 906.798,879.704 901.103,869.05C895.407,858.396 892.559,845.531 892.559,830.454C892.559,815.281 895.407,802.359 901.103,791.688C906.798,781.018 914.557,772.878 924.378,767.267C934.2,761.657 945.264,758.851 957.57,758.851C969.876,758.851 980.924,761.657 990.714,767.267C1000.5,772.878 1008.25,781.018 1013.95,791.688C1019.64,802.359 1022.49,815.281 1022.49,830.454C1022.49,845.565 1019.64,858.447 1013.95,869.101C1008.25,879.755 1000.5,887.88 990.714,893.476C980.924,899.072 969.876,901.87 957.57,901.87ZM957.57,876.535C964.781,876.535 971.08,874.768 976.467,871.234C981.854,867.701 986.046,862.501 989.044,855.635C992.042,848.77 993.541,840.376 993.541,830.454C993.541,820.44 992.042,811.992 989.044,805.11C986.046,798.228 981.854,793.02 976.467,789.487C971.08,785.953 964.781,784.186 957.57,784.186C950.364,784.186 944.06,785.96 938.659,789.508C933.258,793.055 929.05,798.271 926.034,805.153C923.019,812.036 921.512,820.469 921.512,830.454C921.512,840.376 923.019,848.763 926.034,855.614C929.05,862.466 933.258,867.665 938.659,871.213C944.06,874.761 950.364,876.535 957.57,876.535Z" style="fill:rgb(39,42,73);fill-rule:nonzero;"/>
                <path d="M1093.04,902.027C1081.9,902.027 1072.2,900.314 1063.94,896.888C1055.68,893.462 1049.24,888.39 1044.63,881.672C1040.02,874.954 1037.57,866.657 1037.28,856.781L1065.04,856.781C1065.41,861.477 1066.8,865.397 1069.24,868.541C1071.67,871.685 1074.91,874.041 1078.97,875.608C1083.03,877.175 1087.62,877.959 1092.74,877.959C1097.82,877.959 1102.26,877.216 1106.05,875.732C1109.84,874.248 1112.78,872.166 1114.89,869.487C1116.99,866.808 1118.04,863.713 1118.04,860.204C1118.04,856.996 1117.1,854.318 1115.22,852.17C1113.33,850.022 1110.61,848.179 1107.04,846.641C1103.47,845.103 1099.14,843.732 1094.05,842.528L1078.74,838.721C1066.95,835.845 1057.71,831.338 1051.03,825.2C1044.34,819.061 1041,810.926 1041,800.794C1041,792.404 1043.27,785.062 1047.81,778.769C1052.35,772.476 1058.56,767.583 1066.45,764.09C1074.33,760.598 1083.32,758.851 1093.4,758.851C1103.71,758.851 1112.69,760.614 1120.36,764.141C1128.02,767.667 1133.99,772.556 1138.28,778.806C1142.56,785.057 1144.78,792.258 1144.92,800.41L1117.34,800.41C1116.8,794.829 1114.41,790.504 1110.17,787.436C1105.93,784.368 1100.25,782.834 1093.14,782.834C1088.31,782.834 1084.17,783.529 1080.75,784.92C1077.32,786.311 1074.72,788.225 1072.93,790.662C1071.15,793.1 1070.26,795.877 1070.26,798.993C1070.26,802.407 1071.3,805.241 1073.38,807.495C1075.45,809.748 1078.2,811.583 1081.6,812.999C1085.01,814.414 1088.66,815.59 1092.56,816.525L1105.13,819.599C1110.99,820.933 1116.44,822.725 1121.5,824.975C1126.56,827.224 1130.98,829.983 1134.77,833.251C1138.57,836.519 1141.52,840.389 1143.63,844.862C1145.74,849.334 1146.79,854.491 1146.79,860.333C1146.79,868.777 1144.66,876.128 1140.4,882.386C1136.14,888.645 1130.01,893.483 1122,896.901C1113.99,900.318 1104.34,902.027 1093.04,902.027Z" style="fill:rgb(39,42,73);fill-rule:nonzero;"/>
                <path d="M1154.46,900L1202.1,760.721L1239.42,760.721L1288.27,900L1256.56,900L1234.24,832.813C1231.52,824.136 1228.79,814.635 1226.03,804.308C1223.28,793.982 1220.38,782.731 1217.32,770.555L1223.51,770.555C1220.55,782.788 1217.78,794.097 1215.2,804.48C1212.62,814.863 1210.05,824.307 1207.49,832.813L1185.96,900L1154.46,900ZM1184.22,867.676L1184.22,845.295L1258.51,845.295L1258.51,867.676L1184.22,867.676Z" style="fill:rgb(39,42,73);fill-rule:nonzero;"/>
                <path d="M1351.7,902.027C1340.56,902.027 1330.86,900.314 1322.6,896.888C1314.34,893.462 1307.9,888.39 1303.29,881.672C1298.68,874.954 1296.23,866.657 1295.94,856.781L1323.7,856.781C1324.07,861.477 1325.46,865.397 1327.89,868.541C1330.33,871.685 1333.57,874.041 1337.63,875.608C1341.69,877.175 1346.28,877.959 1351.4,877.959C1356.49,877.959 1360.92,877.216 1364.71,875.732C1368.5,874.248 1371.44,872.166 1373.55,869.487C1375.65,866.808 1376.7,863.713 1376.7,860.204C1376.7,856.996 1375.76,854.318 1373.88,852.17C1371.99,850.022 1369.27,848.179 1365.7,846.641C1362.13,845.103 1357.8,843.732 1352.71,842.528L1337.4,838.721C1325.61,835.845 1316.37,831.338 1309.69,825.2C1303,819.061 1299.66,810.926 1299.66,800.794C1299.66,792.404 1301.93,785.062 1306.47,778.769C1311.01,772.476 1317.22,767.583 1325.11,764.09C1332.99,760.598 1341.98,758.851 1352.06,758.851C1362.37,758.851 1371.35,760.614 1379.02,764.141C1386.68,767.667 1392.65,772.556 1396.94,778.806C1401.22,785.057 1403.44,792.258 1403.59,800.41L1376,800.41C1375.46,794.829 1373.07,790.504 1368.83,787.436C1364.59,784.368 1358.91,782.834 1351.8,782.834C1346.96,782.834 1342.83,783.529 1339.41,784.92C1335.99,786.311 1333.38,788.225 1331.59,790.662C1329.81,793.1 1328.91,795.877 1328.91,798.993C1328.91,802.407 1329.95,805.241 1332.04,807.495C1334.12,809.748 1336.86,811.583 1340.26,812.999C1343.66,814.414 1347.32,815.59 1351.22,816.525L1363.79,819.599C1369.65,820.933 1375.1,822.725 1380.16,824.975C1385.22,827.224 1389.64,829.983 1393.43,833.251C1397.23,836.519 1400.18,840.389 1402.29,844.862C1404.4,849.334 1405.45,854.491 1405.45,860.333C1405.45,868.777 1403.33,876.128 1399.07,882.386C1394.81,888.645 1388.67,893.483 1380.66,896.901C1372.65,900.318 1363,902.027 1351.7,902.027Z" style="fill:rgb(39,42,73);fill-rule:nonzero;"/>
            </g>
        </g>
    </g>
</svg>
