<?xml version="1.0" encoding="UTF-8" standalone="no"?>
<!DOCTYPE svg PUBLIC "-//W3C//DTD SVG 1.1//EN" "http://www.w3.org/Graphics/SVG/1.1/DTD/svg11.dtd">
<svg width="100%" height="100%" viewBox="0 0 789 158" version="1.1" xmlns="http://www.w3.org/2000/svg" xmlns:xlink="http://www.w3.org/1999/xlink" xml:space="preserve" xmlns:serif="http://www.serif.com/" style="fill-rule:evenodd;clip-rule:evenodd;stroke-linejoin:round;stroke-miterlimit:2;">
    <g transform="matrix(1,0,0,1,-142,-458)">
        <g>
            <g>
                <g transform="matrix(1.20405,0,0,1.20405,-190.351,-193.857)">
                    <path d="M332.68,613.422C333.113,612.332 333.416,611.171 333.569,609.954C334.586,601.886 328.61,594.551 320.372,594.033C313.104,593.577 306.569,598.875 305.491,606.078C304.97,609.558 305.758,612.92 307.476,615.676C309.172,618.397 309.929,621.596 309.528,624.777L309.427,625.582C309.026,628.763 307.259,631.449 305.182,633.89C296.387,644.229 276.282,635.288 276.282,635.288L287.173,571.224L315.381,571.224L320.764,587.881C325.201,575.452 332.802,569.943 346.596,569.943C357.446,569.943 363.881,574.94 365.063,586.215C369.926,574.94 377.904,569.943 390.149,569.943C406.268,569.943 413.379,579.168 409.719,600.693L403.838,635.288L367.912,635.288C367.912,635.288 366.281,629.936 366.63,627.145L366.632,627.127C367.055,623.796 368.586,620.697 370.999,618.358C373.232,616.193 374.772,613.28 375.191,609.954C376.207,601.886 370.231,594.551 361.993,594.033C354.725,593.577 348.191,598.875 347.113,606.078C346.592,609.558 347.379,612.92 349.098,615.676C349.525,616.362 350.671,618.467 350.864,618.782C352.379,621.251 353.096,624.235 352.705,627.332C351.759,634.845 344.675,640.082 337.124,638.647C330.461,637.38 325.79,631.092 326.481,624.345C326.815,621.085 328.301,618.234 330.488,616.145C331.34,615.33 332.077,614.414 332.68,613.422ZM339.615,619.078C336.019,619.078 333.1,621.998 333.1,625.593C333.1,629.189 336.019,632.109 339.615,632.109C343.211,632.109 346.13,629.189 346.13,625.593C346.13,621.998 343.211,619.078 339.615,619.078ZM327.533,608.897C327.464,609.661 327.291,610.379 327.034,611.056C325.744,614.443 322.264,616.648 318.504,616.174C314.743,615.7 311.913,612.7 311.503,609.099C311.427,608.473 311.432,607.831 311.514,607.176C312.092,602.58 316.435,599.384 321.058,600.278C325.064,601.054 327.894,604.832 327.533,608.897ZM369.154,608.897C369.086,609.661 368.912,610.379 368.656,611.056C367.366,614.443 363.886,616.648 360.125,616.174C356.364,615.7 353.534,612.7 353.125,609.099C353.049,608.473 353.053,607.831 353.135,607.176C353.714,602.58 358.056,599.384 362.679,600.278C366.686,601.054 369.516,604.832 369.154,608.897Z" style="fill:rgb(39,42,73);"/>
                </g>
                <g transform="matrix(1.27206,0,0,1.27206,73.1599,-3703.91)">
                    <g transform="matrix(119.479,0,0,119.479,672.967,3360.61)">
                    </g>
                    <text x="181.551px" y="3360.61px" style="font-family:'FivoSansModern-ExtBlkObliq', 'Fivo Sans Modern';font-weight:900;font-style:italic;font-size:119.479px;fill:rgb(39,42,73);">i<tspan x="224.444px 304.136px 377.377px 444.524px 521.229px 600.921px " y="3360.61px 3360.61px 3360.61px 3360.61px 3360.61px 3360.61px ">kasuka</tspan></text>
                </g>
            </g>
            <g transform="matrix(0.15968,0,0,0.15968,695.594,471.375)">
                <g transform="matrix(191.439,0,0,191.439,376,900)">
                    <path d="M0.066,-0L0.066,-0.728L0.355,-0.728C0.408,-0.728 0.452,-0.719 0.488,-0.703C0.524,-0.687 0.55,-0.665 0.568,-0.637C0.586,-0.609 0.595,-0.577 0.595,-0.541C0.595,-0.512 0.589,-0.487 0.578,-0.466C0.566,-0.444 0.551,-0.427 0.531,-0.413C0.511,-0.4 0.489,-0.39 0.464,-0.384L0.464,-0.377C0.491,-0.376 0.517,-0.368 0.541,-0.354C0.565,-0.339 0.585,-0.319 0.6,-0.293C0.615,-0.267 0.623,-0.236 0.623,-0.2C0.623,-0.162 0.614,-0.128 0.595,-0.098C0.576,-0.067 0.548,-0.044 0.511,-0.026C0.474,-0.009 0.428,-0 0.373,-0L0.066,-0ZM0.215,-0.123L0.344,-0.123C0.387,-0.123 0.419,-0.131 0.439,-0.148C0.46,-0.165 0.47,-0.187 0.47,-0.215C0.47,-0.235 0.465,-0.253 0.455,-0.269C0.445,-0.285 0.431,-0.297 0.412,-0.307C0.394,-0.316 0.373,-0.32 0.347,-0.32L0.215,-0.32L0.215,-0.123ZM0.215,-0.422L0.332,-0.422C0.354,-0.422 0.373,-0.426 0.39,-0.433C0.406,-0.441 0.42,-0.452 0.429,-0.466C0.439,-0.48 0.444,-0.497 0.444,-0.517C0.444,-0.543 0.435,-0.565 0.416,-0.581C0.397,-0.598 0.37,-0.606 0.335,-0.606L0.215,-0.606L0.215,-0.422Z" style="fill:rgb(39,42,73);fill-rule:nonzero;"/>
                </g>
                <g transform="matrix(191.439,0,0,191.439,500.757,900)">
                    <rect x="0.066" y="-0.728" width="0.149" height="0.728" style="fill:rgb(39,42,73);fill-rule:nonzero;"/>
                </g>
                <g transform="matrix(191.439,0,0,191.439,552.576,900)">
                    <path d="M0.384,0.01C0.319,0.01 0.261,-0.005 0.211,-0.034C0.16,-0.064 0.119,-0.106 0.09,-0.162C0.061,-0.217 0.046,-0.285 0.046,-0.363C0.046,-0.443 0.061,-0.51 0.09,-0.566C0.12,-0.622 0.16,-0.664 0.211,-0.693C0.262,-0.723 0.32,-0.737 0.384,-0.737C0.425,-0.737 0.464,-0.732 0.499,-0.72C0.535,-0.708 0.567,-0.692 0.594,-0.669C0.622,-0.647 0.644,-0.62 0.662,-0.588C0.68,-0.556 0.691,-0.52 0.697,-0.479L0.546,-0.479C0.543,-0.499 0.536,-0.516 0.527,-0.532C0.518,-0.548 0.506,-0.561 0.492,-0.572C0.479,-0.583 0.463,-0.591 0.445,-0.597C0.427,-0.602 0.408,-0.605 0.387,-0.605C0.349,-0.605 0.316,-0.596 0.287,-0.577C0.259,-0.558 0.237,-0.53 0.221,-0.494C0.205,-0.458 0.197,-0.415 0.197,-0.363C0.197,-0.311 0.205,-0.267 0.221,-0.231C0.237,-0.195 0.259,-0.168 0.288,-0.15C0.316,-0.132 0.349,-0.123 0.386,-0.123C0.407,-0.123 0.426,-0.125 0.444,-0.131C0.462,-0.137 0.478,-0.145 0.492,-0.156C0.506,-0.167 0.518,-0.18 0.527,-0.196C0.536,-0.211 0.543,-0.229 0.547,-0.249L0.697,-0.249C0.693,-0.215 0.683,-0.183 0.667,-0.152C0.651,-0.121 0.63,-0.093 0.603,-0.069C0.576,-0.045 0.544,-0.025 0.508,-0.011C0.471,0.003 0.43,0.01 0.384,0.01Z" style="fill:rgb(39,42,73);fill-rule:nonzero;"/>
                </g>
                <g transform="matrix(191.439,0,0,191.439,692.268,900)">
                    <rect x="0.066" y="-0.728" width="0.149" height="0.728" style="fill:rgb(39,42,73);fill-rule:nonzero;"/>
                </g>
                <g transform="matrix(191.439,0,0,191.439,744.087,900)">
                    <path d="M0.384,0.01C0.319,0.01 0.261,-0.005 0.211,-0.034C0.16,-0.064 0.119,-0.106 0.09,-0.162C0.061,-0.217 0.046,-0.285 0.046,-0.363C0.046,-0.443 0.061,-0.51 0.09,-0.566C0.12,-0.622 0.16,-0.664 0.211,-0.693C0.262,-0.723 0.32,-0.737 0.384,-0.737C0.425,-0.737 0.464,-0.732 0.499,-0.72C0.535,-0.708 0.567,-0.692 0.594,-0.669C0.622,-0.647 0.644,-0.62 0.662,-0.588C0.68,-0.556 0.691,-0.52 0.697,-0.479L0.546,-0.479C0.543,-0.499 0.536,-0.516 0.527,-0.532C0.518,-0.548 0.506,-0.561 0.492,-0.572C0.479,-0.583 0.463,-0.591 0.445,-0.597C0.427,-0.602 0.408,-0.605 0.387,-0.605C0.349,-0.605 0.316,-0.596 0.287,-0.577C0.259,-0.558 0.237,-0.53 0.221,-0.494C0.205,-0.458 0.197,-0.415 0.197,-0.363C0.197,-0.311 0.205,-0.267 0.221,-0.231C0.237,-0.195 0.259,-0.168 0.288,-0.15C0.316,-0.132 0.349,-0.123 0.386,-0.123C0.407,-0.123 0.426,-0.125 0.444,-0.131C0.462,-0.137 0.478,-0.145 0.492,-0.156C0.506,-0.167 0.518,-0.18 0.527,-0.196C0.536,-0.211 0.543,-0.229 0.547,-0.249L0.697,-0.249C0.693,-0.215 0.683,-0.183 0.667,-0.152C0.651,-0.121 0.63,-0.093 0.603,-0.069C0.576,-0.045 0.544,-0.025 0.508,-0.011C0.471,0.003 0.43,0.01 0.384,0.01Z" style="fill:rgb(39,42,73);fill-rule:nonzero;"/>
                </g>
                <g transform="matrix(191.439,0,0,191.439,883.78,900)">
                    <path d="M0.385,0.01C0.321,0.01 0.263,-0.005 0.212,-0.034C0.161,-0.064 0.12,-0.106 0.09,-0.162C0.061,-0.217 0.046,-0.285 0.046,-0.363C0.046,-0.443 0.061,-0.51 0.09,-0.566C0.12,-0.622 0.161,-0.664 0.212,-0.693C0.263,-0.723 0.321,-0.737 0.385,-0.737C0.45,-0.737 0.507,-0.723 0.559,-0.693C0.61,-0.664 0.65,-0.622 0.68,-0.566C0.71,-0.51 0.725,-0.443 0.725,-0.363C0.725,-0.284 0.71,-0.217 0.68,-0.161C0.65,-0.106 0.61,-0.063 0.559,-0.034C0.507,-0.005 0.45,0.01 0.385,0.01ZM0.385,-0.123C0.423,-0.123 0.456,-0.132 0.484,-0.15C0.512,-0.169 0.534,-0.196 0.55,-0.232C0.566,-0.268 0.573,-0.311 0.573,-0.363C0.573,-0.416 0.566,-0.46 0.55,-0.496C0.534,-0.532 0.512,-0.559 0.484,-0.577C0.456,-0.596 0.423,-0.605 0.385,-0.605C0.348,-0.605 0.315,-0.596 0.287,-0.577C0.258,-0.559 0.236,-0.531 0.221,-0.495C0.205,-0.459 0.197,-0.415 0.197,-0.363C0.197,-0.311 0.205,-0.268 0.221,-0.232C0.236,-0.196 0.258,-0.169 0.287,-0.15C0.315,-0.132 0.348,-0.123 0.385,-0.123Z" style="fill:rgb(39,42,73);fill-rule:nonzero;"/>
                </g>
                <g transform="matrix(191.439,0,0,191.439,1029.36,900)">
                    <path d="M0.333,0.011C0.274,0.011 0.224,0.002 0.181,-0.016C0.137,-0.034 0.104,-0.061 0.08,-0.096C0.056,-0.131 0.043,-0.174 0.041,-0.226L0.186,-0.226C0.188,-0.201 0.196,-0.181 0.208,-0.164C0.221,-0.148 0.238,-0.136 0.259,-0.127C0.28,-0.119 0.304,-0.115 0.331,-0.115C0.358,-0.115 0.381,-0.119 0.401,-0.127C0.42,-0.135 0.436,-0.145 0.447,-0.159C0.458,-0.173 0.463,-0.19 0.463,-0.208C0.463,-0.225 0.458,-0.239 0.448,-0.25C0.439,-0.261 0.424,-0.271 0.406,-0.279C0.387,-0.287 0.364,-0.294 0.338,-0.3L0.258,-0.32C0.196,-0.335 0.148,-0.359 0.113,-0.391C0.078,-0.423 0.061,-0.465 0.061,-0.518C0.061,-0.562 0.073,-0.6 0.096,-0.633C0.12,-0.666 0.153,-0.692 0.194,-0.71C0.235,-0.728 0.282,-0.737 0.335,-0.737C0.388,-0.737 0.435,-0.728 0.475,-0.71C0.515,-0.691 0.547,-0.666 0.569,-0.633C0.591,-0.6 0.603,-0.563 0.604,-0.52L0.46,-0.52C0.457,-0.549 0.444,-0.572 0.422,-0.588C0.4,-0.604 0.37,-0.612 0.333,-0.612C0.308,-0.612 0.286,-0.608 0.268,-0.601C0.251,-0.594 0.237,-0.584 0.228,-0.571C0.218,-0.558 0.214,-0.544 0.214,-0.528C0.214,-0.51 0.219,-0.495 0.23,-0.483C0.241,-0.471 0.255,-0.462 0.273,-0.454C0.291,-0.447 0.31,-0.441 0.33,-0.436L0.396,-0.42C0.426,-0.413 0.455,-0.404 0.481,-0.392C0.508,-0.38 0.531,-0.366 0.551,-0.349C0.57,-0.332 0.586,-0.311 0.597,-0.288C0.608,-0.265 0.613,-0.238 0.613,-0.207C0.613,-0.163 0.602,-0.125 0.58,-0.092C0.558,-0.059 0.526,-0.034 0.484,-0.016C0.442,0.002 0.392,0.011 0.333,0.011Z" style="fill:rgb(39,42,73);fill-rule:nonzero;"/>
                </g>
                <g transform="matrix(191.439,0,0,191.439,1149.9,900)">
                    <path d="M0.024,-0L0.273,-0.728L0.468,-0.728L0.723,-0L0.557,-0L0.441,-0.351C0.426,-0.396 0.412,-0.446 0.398,-0.5C0.383,-0.554 0.368,-0.613 0.352,-0.676L0.385,-0.676C0.369,-0.612 0.355,-0.553 0.341,-0.499C0.328,-0.445 0.314,-0.395 0.301,-0.351L0.188,-0L0.024,-0ZM0.179,-0.169L0.179,-0.286L0.567,-0.286L0.567,-0.169L0.179,-0.169Z" style="fill:rgb(39,42,73);fill-rule:nonzero;"/>
                </g>
                <g transform="matrix(191.439,0,0,191.439,1288.02,900)">
                    <path d="M0.333,0.011C0.274,0.011 0.224,0.002 0.181,-0.016C0.137,-0.034 0.104,-0.061 0.08,-0.096C0.056,-0.131 0.043,-0.174 0.041,-0.226L0.186,-0.226C0.188,-0.201 0.196,-0.181 0.208,-0.164C0.221,-0.148 0.238,-0.136 0.259,-0.127C0.28,-0.119 0.304,-0.115 0.331,-0.115C0.358,-0.115 0.381,-0.119 0.401,-0.127C0.42,-0.135 0.436,-0.145 0.447,-0.159C0.458,-0.173 0.463,-0.19 0.463,-0.208C0.463,-0.225 0.458,-0.239 0.448,-0.25C0.439,-0.261 0.424,-0.271 0.406,-0.279C0.387,-0.287 0.364,-0.294 0.338,-0.3L0.258,-0.32C0.196,-0.335 0.148,-0.359 0.113,-0.391C0.078,-0.423 0.061,-0.465 0.061,-0.518C0.061,-0.562 0.073,-0.6 0.096,-0.633C0.12,-0.666 0.153,-0.692 0.194,-0.71C0.235,-0.728 0.282,-0.737 0.335,-0.737C0.388,-0.737 0.435,-0.728 0.475,-0.71C0.515,-0.691 0.547,-0.666 0.569,-0.633C0.591,-0.6 0.603,-0.563 0.604,-0.52L0.46,-0.52C0.457,-0.549 0.444,-0.572 0.422,-0.588C0.4,-0.604 0.37,-0.612 0.333,-0.612C0.308,-0.612 0.286,-0.608 0.268,-0.601C0.251,-0.594 0.237,-0.584 0.228,-0.571C0.218,-0.558 0.214,-0.544 0.214,-0.528C0.214,-0.51 0.219,-0.495 0.23,-0.483C0.241,-0.471 0.255,-0.462 0.273,-0.454C0.291,-0.447 0.31,-0.441 0.33,-0.436L0.396,-0.42C0.426,-0.413 0.455,-0.404 0.481,-0.392C0.508,-0.38 0.531,-0.366 0.551,-0.349C0.57,-0.332 0.586,-0.311 0.597,-0.288C0.608,-0.265 0.613,-0.238 0.613,-0.207C0.613,-0.163 0.602,-0.125 0.58,-0.092C0.558,-0.059 0.526,-0.034 0.484,-0.016C0.442,0.002 0.392,0.011 0.333,0.011Z" style="fill:rgb(39,42,73);fill-rule:nonzero;"/>
                </g>
                <g transform="matrix(191.439,0,0,191.439,1413.37,900)">
                </g>
            </g>
        </g>
    </g>
</svg>
